# xmcd
# Track frame offsets:
# 150
# 15735
# 32434
# 48488
# 67411
# 83248
# 100905
# 118697
# 138179
# 152180
# 166182
# 182328
# 199879
# 212601
# 228279
#
# Disc length: 3267 seconds
# Revision: 0
# Processed by: cddbd v1.5.1PL0 Copyright (c) Steve Scherf et al.
# Submitted via: VisiTrax 2.9.10.228 - For more info visit www.synapsa.com
#
DISCID=c50cc10f
DTITLE=Carpenter, Mary Chapin - CB90029
DYEAR=1900
DGENRE=Karaoke
TTITLE0=Down At The Twist And Shout
TTITLE1=I Feel Lucky
TTITLE2=Passionate Kisses
TTITLE3=He Thinks He'll Keep Her
TTITLE4=Not Too Much To Ask
TTITLE5=I Take My Chances
TTITLE6=Shut Up And Kiss Me
TTITLE7=Never Had it So Good
TTITLE8=Let Me Into Your Heart
TTITLE9=Something Of A Dreamer
TTITLE10=You Win Again
TTITLE11=Quittin' Time
TTITLE12=Right Now
TTITLE13=Grow Old With Me
TTITLE14=It's Only Love
EXTD=
EXTT0=
EXTT1=
EXTT2=
EXTT3=
EXTT4=
EXTT5=
EXTT6=
EXTT7=
EXTT8=
EXTT9=
EXTT10=
EXTT11=
EXTT12=
EXTT13=
EXTT14=
PLAYORDER=
